<?xml version="1.0" encoding="utf-8"?>
<svg xmlns="http://www.w3.org/2000/svg" xmlns:xlink="http://www.w3.org/1999/xlink" width="600" height="400" viewBox="0 0 2400 1600">
<defs>
  <clipPath id="clip900">
    <rect x="0" y="0" width="2400" height="1600"/>
  </clipPath>
</defs>
<path clip-path="url(#clip900)" d="M0 1600 L2400 1600 L2400 0 L0 0  Z" fill="#ffffff" fill-rule="evenodd" fill-opacity="1"/>
<defs>
  <clipPath id="clip901">
    <rect x="480" y="0" width="1681" height="1600"/>
  </clipPath>
</defs>
<path clip-path="url(#clip900)" d="M102.74 1505.26 L2352.76 1505.26 L2352.76 62.9921 L102.74 62.9921  Z" fill="#ffffff" fill-rule="evenodd" fill-opacity="1"/>
<defs>
  <clipPath id="clip902">
    <rect x="102" y="62" width="2251" height="1443"/>
  </clipPath>
</defs>
<polyline clip-path="url(#clip902)" style="stroke:#000000; stroke-linecap:round; stroke-linejoin:round; stroke-width:2; stroke-opacity:0.1; fill:none" points="157.864,1505.26 157.864,62.9921 "/>
<polyline clip-path="url(#clip902)" style="stroke:#000000; stroke-linecap:round; stroke-linejoin:round; stroke-width:2; stroke-opacity:0.1; fill:none" points="492.035,1505.26 492.035,62.9921 "/>
<polyline clip-path="url(#clip902)" style="stroke:#000000; stroke-linecap:round; stroke-linejoin:round; stroke-width:2; stroke-opacity:0.1; fill:none" points="826.206,1505.26 826.206,62.9921 "/>
<polyline clip-path="url(#clip902)" style="stroke:#000000; stroke-linecap:round; stroke-linejoin:round; stroke-width:2; stroke-opacity:0.1; fill:none" points="1160.38,1505.26 1160.38,62.9921 "/>
<polyline clip-path="url(#clip902)" style="stroke:#000000; stroke-linecap:round; stroke-linejoin:round; stroke-width:2; stroke-opacity:0.1; fill:none" points="1494.55,1505.26 1494.55,62.9921 "/>
<polyline clip-path="url(#clip902)" style="stroke:#000000; stroke-linecap:round; stroke-linejoin:round; stroke-width:2; stroke-opacity:0.1; fill:none" points="1828.72,1505.26 1828.72,62.9921 "/>
<polyline clip-path="url(#clip902)" style="stroke:#000000; stroke-linecap:round; stroke-linejoin:round; stroke-width:2; stroke-opacity:0.1; fill:none" points="2162.89,1505.26 2162.89,62.9921 "/>
<polyline clip-path="url(#clip900)" style="stroke:#000000; stroke-linecap:round; stroke-linejoin:round; stroke-width:4; stroke-opacity:1; fill:none" points="102.74,1505.26 2352.76,1505.26 "/>
<polyline clip-path="url(#clip900)" style="stroke:#000000; stroke-linecap:round; stroke-linejoin:round; stroke-width:4; stroke-opacity:1; fill:none" points="157.864,1505.26 157.864,1486.36 "/>
<polyline clip-path="url(#clip900)" style="stroke:#000000; stroke-linecap:round; stroke-linejoin:round; stroke-width:4; stroke-opacity:1; fill:none" points="492.035,1505.26 492.035,1486.36 "/>
<polyline clip-path="url(#clip900)" style="stroke:#000000; stroke-linecap:round; stroke-linejoin:round; stroke-width:4; stroke-opacity:1; fill:none" points="826.206,1505.26 826.206,1486.36 "/>
<polyline clip-path="url(#clip900)" style="stroke:#000000; stroke-linecap:round; stroke-linejoin:round; stroke-width:4; stroke-opacity:1; fill:none" points="1160.38,1505.26 1160.38,1486.36 "/>
<polyline clip-path="url(#clip900)" style="stroke:#000000; stroke-linecap:round; stroke-linejoin:round; stroke-width:4; stroke-opacity:1; fill:none" points="1494.55,1505.26 1494.55,1486.36 "/>
<polyline clip-path="url(#clip900)" style="stroke:#000000; stroke-linecap:round; stroke-linejoin:round; stroke-width:4; stroke-opacity:1; fill:none" points="1828.72,1505.26 1828.72,1486.36 "/>
<polyline clip-path="url(#clip900)" style="stroke:#000000; stroke-linecap:round; stroke-linejoin:round; stroke-width:4; stroke-opacity:1; fill:none" points="2162.89,1505.26 2162.89,1486.36 "/>
<path clip-path="url(#clip900)" d="M157.864 1536.18 Q154.253 1536.18 152.424 1539.74 Q150.619 1543.28 150.619 1550.41 Q150.619 1557.52 152.424 1561.09 Q154.253 1564.63 157.864 1564.63 Q161.498 1564.63 163.304 1561.09 Q165.133 1557.52 165.133 1550.41 Q165.133 1543.28 163.304 1539.74 Q161.498 1536.18 157.864 1536.18 M157.864 1532.47 Q163.674 1532.47 166.73 1537.08 Q169.809 1541.66 169.809 1550.41 Q169.809 1559.14 166.73 1563.75 Q163.674 1568.33 157.864 1568.33 Q152.054 1568.33 148.975 1563.75 Q145.92 1559.14 145.92 1550.41 Q145.92 1541.66 148.975 1537.08 Q152.054 1532.47 157.864 1532.47 Z" fill="#000000" fill-rule="nonzero" fill-opacity="1" /><path clip-path="url(#clip900)" d="M482.417 1563.72 L490.056 1563.72 L490.056 1537.36 L481.746 1539.03 L481.746 1534.77 L490.01 1533.1 L494.686 1533.1 L494.686 1563.72 L502.324 1563.72 L502.324 1567.66 L482.417 1567.66 L482.417 1563.72 Z" fill="#000000" fill-rule="nonzero" fill-opacity="1" /><path clip-path="url(#clip900)" d="M820.859 1563.72 L837.178 1563.72 L837.178 1567.66 L815.234 1567.66 L815.234 1563.72 Q817.896 1560.97 822.479 1556.34 Q827.086 1551.69 828.266 1550.35 Q830.512 1547.82 831.391 1546.09 Q832.294 1544.33 832.294 1542.64 Q832.294 1539.88 830.35 1538.15 Q828.428 1536.41 825.326 1536.41 Q823.127 1536.41 820.674 1537.17 Q818.243 1537.94 815.465 1539.49 L815.465 1534.77 Q818.289 1533.63 820.743 1533.05 Q823.197 1532.47 825.234 1532.47 Q830.604 1532.47 833.799 1535.16 Q836.993 1537.85 836.993 1542.34 Q836.993 1544.47 836.183 1546.39 Q835.396 1548.28 833.289 1550.88 Q832.711 1551.55 829.609 1554.77 Q826.507 1557.96 820.859 1563.72 Z" fill="#000000" fill-rule="nonzero" fill-opacity="1" /><path clip-path="url(#clip900)" d="M1164.62 1549.03 Q1167.98 1549.74 1169.86 1552.01 Q1171.75 1554.28 1171.75 1557.61 Q1171.75 1562.73 1168.24 1565.53 Q1164.72 1568.33 1158.24 1568.33 Q1156.06 1568.33 1153.75 1567.89 Q1151.45 1567.47 1149 1566.62 L1149 1562.1 Q1150.94 1563.24 1153.26 1563.82 Q1155.57 1564.4 1158.1 1564.4 Q1162.5 1564.4 1164.79 1562.66 Q1167.1 1560.92 1167.1 1557.61 Q1167.1 1554.56 1164.95 1552.85 Q1162.82 1551.11 1159 1551.11 L1154.97 1551.11 L1154.97 1547.27 L1159.18 1547.27 Q1162.63 1547.27 1164.46 1545.9 Q1166.29 1544.51 1166.29 1541.92 Q1166.29 1539.26 1164.39 1537.85 Q1162.52 1536.41 1159 1536.41 Q1157.08 1536.41 1154.88 1536.83 Q1152.68 1537.24 1150.04 1538.12 L1150.04 1533.96 Q1152.7 1533.22 1155.02 1532.85 Q1157.36 1532.47 1159.42 1532.47 Q1164.74 1532.47 1167.84 1534.91 Q1170.94 1537.31 1170.94 1541.43 Q1170.94 1544.3 1169.3 1546.29 Q1167.66 1548.26 1164.62 1549.03 Z" fill="#000000" fill-rule="nonzero" fill-opacity="1" /><path clip-path="url(#clip900)" d="M1497.56 1537.17 L1485.75 1555.62 L1497.56 1555.62 L1497.56 1537.17 M1496.33 1533.1 L1502.21 1533.1 L1502.21 1555.62 L1507.14 1555.62 L1507.14 1559.51 L1502.21 1559.51 L1502.21 1567.66 L1497.56 1567.66 L1497.56 1559.51 L1481.96 1559.51 L1481.96 1555 L1496.33 1533.1 Z" fill="#000000" fill-rule="nonzero" fill-opacity="1" /><path clip-path="url(#clip900)" d="M1819 1533.1 L1837.35 1533.1 L1837.35 1537.04 L1823.28 1537.04 L1823.28 1545.51 Q1824.3 1545.16 1825.32 1545 Q1826.33 1544.81 1827.35 1544.81 Q1833.14 1544.81 1836.52 1547.98 Q1839.9 1551.16 1839.9 1556.57 Q1839.9 1562.15 1836.43 1565.25 Q1832.95 1568.33 1826.64 1568.33 Q1824.46 1568.33 1822.19 1567.96 Q1819.95 1567.59 1817.54 1566.85 L1817.54 1562.15 Q1819.62 1563.28 1821.84 1563.84 Q1824.07 1564.4 1826.54 1564.4 Q1830.55 1564.4 1832.89 1562.29 Q1835.22 1560.18 1835.22 1556.57 Q1835.22 1552.96 1832.89 1550.85 Q1830.55 1548.75 1826.54 1548.75 Q1824.67 1548.75 1822.79 1549.16 Q1820.94 1549.58 1819 1550.46 L1819 1533.1 Z" fill="#000000" fill-rule="nonzero" fill-opacity="1" /><path clip-path="url(#clip900)" d="M2163.29 1548.52 Q2160.15 1548.52 2158.29 1550.67 Q2156.47 1552.82 2156.47 1556.57 Q2156.47 1560.3 2158.29 1562.47 Q2160.15 1564.63 2163.29 1564.63 Q2166.44 1564.63 2168.27 1562.47 Q2170.12 1560.3 2170.12 1556.57 Q2170.12 1552.82 2168.27 1550.67 Q2166.44 1548.52 2163.29 1548.52 M2172.58 1533.86 L2172.58 1538.12 Q2170.82 1537.29 2169.01 1536.85 Q2167.23 1536.41 2165.47 1536.41 Q2160.84 1536.41 2158.39 1539.53 Q2155.96 1542.66 2155.61 1548.98 Q2156.98 1546.97 2159.04 1545.9 Q2161.1 1544.81 2163.57 1544.81 Q2168.78 1544.81 2171.79 1547.98 Q2174.82 1551.13 2174.82 1556.57 Q2174.82 1561.9 2171.67 1565.11 Q2168.53 1568.33 2163.29 1568.33 Q2157.3 1568.33 2154.13 1563.75 Q2150.96 1559.14 2150.96 1550.41 Q2150.96 1542.22 2154.85 1537.36 Q2158.73 1532.47 2165.29 1532.47 Q2167.04 1532.47 2168.83 1532.82 Q2170.63 1533.17 2172.58 1533.86 Z" fill="#000000" fill-rule="nonzero" fill-opacity="1" /><path clip-path="url(#clip900)" d="M964.049 1636.06 L964.049 1614.48 L969.905 1614.48 L969.905 1635.83 Q969.905 1640.89 971.878 1643.44 Q973.852 1645.95 977.799 1645.95 Q982.541 1645.95 985.278 1642.93 Q988.047 1639.91 988.047 1634.69 L988.047 1614.48 L993.904 1614.48 L993.904 1650.12 L988.047 1650.12 L988.047 1644.65 Q985.915 1647.9 983.082 1649.49 Q980.281 1651.05 976.557 1651.05 Q970.414 1651.05 967.231 1647.23 Q964.049 1643.41 964.049 1636.06 M978.785 1613.62 L978.785 1613.62 Z" fill="#000000" fill-rule="nonzero" fill-opacity="1" /><path clip-path="url(#clip900)" d="M1001.77 1614.48 L1007.97 1614.48 L1019.11 1644.39 L1030.25 1614.48 L1036.46 1614.48 L1023.09 1650.12 L1015.13 1650.12 L1001.77 1614.48 Z" fill="#000000" fill-rule="nonzero" fill-opacity="1" /><path clip-path="url(#clip900)" d="M1039.83 1629.66 L1056.99 1629.66 L1056.99 1634.88 L1039.83 1634.88 L1039.83 1629.66 Z" fill="#000000" fill-rule="nonzero" fill-opacity="1" /><path clip-path="url(#clip900)" d="M1089.77 1619.89 L1089.77 1600.6 L1095.63 1600.6 L1095.63 1650.12 L1089.77 1650.12 L1089.77 1644.78 Q1087.93 1647.96 1085.09 1649.52 Q1082.29 1651.05 1078.34 1651.05 Q1071.88 1651.05 1067.81 1645.89 Q1063.77 1640.73 1063.77 1632.33 Q1063.77 1623.93 1067.81 1618.77 Q1071.88 1613.62 1078.34 1613.62 Q1082.29 1613.62 1085.09 1615.18 Q1087.93 1616.7 1089.77 1619.89 M1069.81 1632.33 Q1069.81 1638.79 1072.46 1642.48 Q1075.13 1646.15 1079.78 1646.15 Q1084.42 1646.15 1087.1 1642.48 Q1089.77 1638.79 1089.77 1632.33 Q1089.77 1625.87 1087.1 1622.21 Q1084.42 1618.52 1079.78 1618.52 Q1075.13 1618.52 1072.46 1622.21 Q1069.81 1625.87 1069.81 1632.33 Z" fill="#000000" fill-rule="nonzero" fill-opacity="1" /><path clip-path="url(#clip900)" d="M1107.69 1614.48 L1113.55 1614.48 L1113.55 1650.12 L1107.69 1650.12 L1107.69 1614.48 M1107.69 1600.6 L1113.55 1600.6 L1113.55 1608.01 L1107.69 1608.01 L1107.69 1600.6 Z" fill="#000000" fill-rule="nonzero" fill-opacity="1" /><path clip-path="url(#clip900)" d="M1148.53 1615.53 L1148.53 1621.06 Q1146.04 1619.79 1143.37 1619.15 Q1140.7 1618.52 1137.83 1618.52 Q1133.47 1618.52 1131.28 1619.85 Q1129.11 1621.19 1129.11 1623.87 Q1129.11 1625.9 1130.67 1627.08 Q1132.23 1628.23 1136.94 1629.28 L1138.95 1629.72 Q1145.18 1631.06 1147.79 1633.51 Q1150.44 1635.93 1150.44 1640.29 Q1150.44 1645.25 1146.49 1648.15 Q1142.57 1651.05 1135.7 1651.05 Q1132.84 1651.05 1129.72 1650.47 Q1126.63 1649.93 1123.19 1648.82 L1123.19 1642.77 Q1126.44 1644.46 1129.59 1645.32 Q1132.74 1646.15 1135.83 1646.15 Q1139.96 1646.15 1142.19 1644.74 Q1144.42 1643.31 1144.42 1640.73 Q1144.42 1638.35 1142.8 1637.07 Q1141.21 1635.8 1135.76 1634.62 L1133.73 1634.15 Q1128.28 1633 1125.86 1630.64 Q1123.45 1628.26 1123.45 1624.12 Q1123.45 1619.09 1127.01 1616.35 Q1130.58 1613.62 1137.13 1613.62 Q1140.38 1613.62 1143.24 1614.09 Q1146.11 1614.57 1148.53 1615.53 Z" fill="#000000" fill-rule="nonzero" fill-opacity="1" /><path clip-path="url(#clip900)" d="M1165.56 1604.35 L1165.56 1614.48 L1177.62 1614.48 L1177.62 1619.03 L1165.56 1619.03 L1165.56 1638.38 Q1165.56 1642.74 1166.73 1643.98 Q1167.94 1645.22 1171.6 1645.22 L1177.62 1645.22 L1177.62 1650.12 L1171.6 1650.12 Q1164.82 1650.12 1162.24 1647.61 Q1159.67 1645.06 1159.67 1638.38 L1159.67 1619.03 L1155.37 1619.03 L1155.37 1614.48 L1159.67 1614.48 L1159.67 1604.35 L1165.56 1604.35 Z" fill="#000000" fill-rule="nonzero" fill-opacity="1" /><path clip-path="url(#clip900)" d="M1201.52 1632.2 Q1194.42 1632.2 1191.69 1633.83 Q1188.95 1635.45 1188.95 1639.37 Q1188.95 1642.48 1190.99 1644.33 Q1193.05 1646.15 1196.59 1646.15 Q1201.46 1646.15 1204.39 1642.71 Q1207.35 1639.24 1207.35 1633.51 L1207.35 1632.2 L1201.52 1632.2 M1213.2 1629.79 L1213.2 1650.12 L1207.35 1650.12 L1207.35 1644.71 Q1205.34 1647.96 1202.35 1649.52 Q1199.36 1651.05 1195.03 1651.05 Q1189.55 1651.05 1186.31 1647.99 Q1183.09 1644.9 1183.09 1639.75 Q1183.09 1633.73 1187.1 1630.68 Q1191.15 1627.62 1199.13 1627.62 L1207.35 1627.62 L1207.35 1627.05 Q1207.35 1623.01 1204.67 1620.81 Q1202.03 1618.58 1197.22 1618.58 Q1194.17 1618.58 1191.27 1619.31 Q1188.38 1620.05 1185.7 1621.51 L1185.7 1616.1 Q1188.92 1614.86 1191.94 1614.25 Q1194.96 1613.62 1197.83 1613.62 Q1205.56 1613.62 1209.38 1617.63 Q1213.2 1621.64 1213.2 1629.79 Z" fill="#000000" fill-rule="nonzero" fill-opacity="1" /><path clip-path="url(#clip900)" d="M1254.9 1628.61 L1254.9 1650.12 L1249.04 1650.12 L1249.04 1628.8 Q1249.04 1623.74 1247.07 1621.22 Q1245.09 1618.71 1241.15 1618.71 Q1236.41 1618.71 1233.67 1621.73 Q1230.93 1624.76 1230.93 1629.98 L1230.93 1650.12 L1225.04 1650.12 L1225.04 1614.48 L1230.93 1614.48 L1230.93 1620.01 Q1233.03 1616.8 1235.86 1615.21 Q1238.73 1613.62 1242.45 1613.62 Q1248.6 1613.62 1251.75 1617.44 Q1254.9 1621.22 1254.9 1628.61 Z" fill="#000000" fill-rule="nonzero" fill-opacity="1" /><path clip-path="url(#clip900)" d="M1292.23 1615.84 L1292.23 1621.32 Q1289.75 1619.95 1287.24 1619.28 Q1284.75 1618.58 1282.21 1618.58 Q1276.51 1618.58 1273.36 1622.21 Q1270.21 1625.81 1270.21 1632.33 Q1270.21 1638.86 1273.36 1642.48 Q1276.51 1646.08 1282.21 1646.08 Q1284.75 1646.08 1287.24 1645.41 Q1289.75 1644.71 1292.23 1643.34 L1292.23 1648.76 Q1289.78 1649.9 1287.14 1650.47 Q1284.53 1651.05 1281.57 1651.05 Q1273.52 1651.05 1268.78 1645.99 Q1264.03 1640.93 1264.03 1632.33 Q1264.03 1623.61 1268.81 1618.61 Q1273.61 1613.62 1281.95 1613.62 Q1284.66 1613.62 1287.24 1614.19 Q1289.81 1614.73 1292.23 1615.84 Z" fill="#000000" fill-rule="nonzero" fill-opacity="1" /><path clip-path="url(#clip900)" d="M1332.91 1630.84 L1332.91 1633.7 L1305.98 1633.7 Q1306.36 1639.75 1309.61 1642.93 Q1312.89 1646.08 1318.71 1646.08 Q1322.09 1646.08 1325.24 1645.25 Q1328.42 1644.43 1331.54 1642.77 L1331.54 1648.31 Q1328.39 1649.65 1325.08 1650.35 Q1321.77 1651.05 1318.36 1651.05 Q1309.83 1651.05 1304.84 1646.08 Q1299.87 1641.12 1299.87 1632.65 Q1299.87 1623.9 1304.58 1618.77 Q1309.32 1613.62 1317.35 1613.62 Q1324.54 1613.62 1328.71 1618.26 Q1332.91 1622.88 1332.91 1630.84 M1327.05 1629.12 Q1326.99 1624.31 1324.35 1621.45 Q1321.74 1618.58 1317.41 1618.58 Q1312.51 1618.58 1309.55 1621.35 Q1306.62 1624.12 1306.17 1629.15 L1327.05 1629.12 Z" fill="#000000" fill-rule="nonzero" fill-opacity="1" /><path clip-path="url(#clip900)" d="M1377.31 1600.66 Q1373.05 1607.98 1370.98 1615.14 Q1368.91 1622.31 1368.91 1629.66 Q1368.91 1637.01 1370.98 1644.24 Q1373.08 1651.43 1377.31 1658.72 L1372.22 1658.72 Q1367.44 1651.24 1365.06 1644.01 Q1362.7 1636.79 1362.7 1629.66 Q1362.7 1622.56 1365.06 1615.37 Q1367.41 1608.17 1372.22 1600.66 L1377.31 1600.66 Z" fill="#000000" fill-rule="nonzero" fill-opacity="1" /><path clip-path="url(#clip900)" d="M1421.33 1643.34 L1421.33 1630.58 L1410.83 1630.58 L1410.83 1625.3 L1427.69 1625.3 L1427.69 1645.7 Q1423.97 1648.34 1419.48 1649.71 Q1415 1651.05 1409.9 1651.05 Q1398.76 1651.05 1392.46 1644.55 Q1386.19 1638.03 1386.19 1626.41 Q1386.19 1614.76 1392.46 1608.27 Q1398.76 1601.74 1409.9 1601.74 Q1414.55 1601.74 1418.72 1602.89 Q1422.92 1604.04 1426.45 1606.26 L1426.45 1613.11 Q1422.89 1610.08 1418.88 1608.56 Q1414.87 1607.03 1410.44 1607.03 Q1401.72 1607.03 1397.33 1611.9 Q1392.97 1616.77 1392.97 1626.41 Q1392.97 1636.02 1397.33 1640.89 Q1401.72 1645.76 1410.44 1645.76 Q1413.85 1645.76 1416.52 1645.19 Q1419.2 1644.59 1421.33 1643.34 Z" fill="#000000" fill-rule="nonzero" fill-opacity="1" /><path clip-path="url(#clip900)" d="M1453.22 1606.17 L1469.68 1650.12 L1463.47 1650.12 L1453.48 1623.77 L1441.19 1650.12 L1434.98 1650.12 L1450.61 1615.94 L1448.26 1609.64 Q1446.76 1605.63 1443.35 1605.63 L1440.3 1605.63 L1440.3 1600.6 L1444.02 1600.66 Q1451.22 1600.76 1453.22 1606.17 Z" fill="#000000" fill-rule="nonzero" fill-opacity="1" /><path clip-path="url(#clip900)" d="M1476.84 1600.66 L1481.93 1600.66 Q1486.7 1608.17 1489.06 1615.37 Q1491.45 1622.56 1491.45 1629.66 Q1491.45 1636.79 1489.06 1644.01 Q1486.7 1651.24 1481.93 1658.72 L1476.84 1658.72 Q1481.07 1651.43 1483.14 1644.24 Q1485.24 1637.01 1485.24 1629.66 Q1485.24 1622.31 1483.14 1615.14 Q1481.07 1607.98 1476.84 1600.66 Z" fill="#000000" fill-rule="nonzero" fill-opacity="1" /><polyline clip-path="url(#clip902)" style="stroke:#000000; stroke-linecap:round; stroke-linejoin:round; stroke-width:2; stroke-opacity:0.1; fill:none" points="102.74,1460.97 2352.76,1460.97 "/>
<polyline clip-path="url(#clip902)" style="stroke:#000000; stroke-linecap:round; stroke-linejoin:round; stroke-width:2; stroke-opacity:0.1; fill:none" points="102.74,1230.9 2352.76,1230.9 "/>
<polyline clip-path="url(#clip902)" style="stroke:#000000; stroke-linecap:round; stroke-linejoin:round; stroke-width:2; stroke-opacity:0.1; fill:none" points="102.74,1000.83 2352.76,1000.83 "/>
<polyline clip-path="url(#clip902)" style="stroke:#000000; stroke-linecap:round; stroke-linejoin:round; stroke-width:2; stroke-opacity:0.1; fill:none" points="102.74,770.757 2352.76,770.757 "/>
<polyline clip-path="url(#clip902)" style="stroke:#000000; stroke-linecap:round; stroke-linejoin:round; stroke-width:2; stroke-opacity:0.1; fill:none" points="102.74,540.688 2352.76,540.688 "/>
<polyline clip-path="url(#clip902)" style="stroke:#000000; stroke-linecap:round; stroke-linejoin:round; stroke-width:2; stroke-opacity:0.1; fill:none" points="102.74,310.618 2352.76,310.618 "/>
<polyline clip-path="url(#clip902)" style="stroke:#000000; stroke-linecap:round; stroke-linejoin:round; stroke-width:2; stroke-opacity:0.1; fill:none" points="102.74,80.5485 2352.76,80.5485 "/>
<polyline clip-path="url(#clip900)" style="stroke:#000000; stroke-linecap:round; stroke-linejoin:round; stroke-width:4; stroke-opacity:1; fill:none" points="102.74,1505.26 102.74,62.9921 "/>
<polyline clip-path="url(#clip900)" style="stroke:#000000; stroke-linecap:round; stroke-linejoin:round; stroke-width:4; stroke-opacity:1; fill:none" points="102.74,1460.97 121.638,1460.97 "/>
<polyline clip-path="url(#clip900)" style="stroke:#000000; stroke-linecap:round; stroke-linejoin:round; stroke-width:4; stroke-opacity:1; fill:none" points="102.74,1230.9 121.638,1230.9 "/>
<polyline clip-path="url(#clip900)" style="stroke:#000000; stroke-linecap:round; stroke-linejoin:round; stroke-width:4; stroke-opacity:1; fill:none" points="102.74,1000.83 121.638,1000.83 "/>
<polyline clip-path="url(#clip900)" style="stroke:#000000; stroke-linecap:round; stroke-linejoin:round; stroke-width:4; stroke-opacity:1; fill:none" points="102.74,770.757 121.638,770.757 "/>
<polyline clip-path="url(#clip900)" style="stroke:#000000; stroke-linecap:round; stroke-linejoin:round; stroke-width:4; stroke-opacity:1; fill:none" points="102.74,540.688 121.638,540.688 "/>
<polyline clip-path="url(#clip900)" style="stroke:#000000; stroke-linecap:round; stroke-linejoin:round; stroke-width:4; stroke-opacity:1; fill:none" points="102.74,310.618 121.638,310.618 "/>
<polyline clip-path="url(#clip900)" style="stroke:#000000; stroke-linecap:round; stroke-linejoin:round; stroke-width:4; stroke-opacity:1; fill:none" points="102.74,80.5485 121.638,80.5485 "/>
<path clip-path="url(#clip900)" d="M5.67567 1461.42 L35.3514 1461.42 L35.3514 1465.35 L5.67567 1465.35 L5.67567 1461.42 Z" fill="#000000" fill-rule="nonzero" fill-opacity="1" /><path clip-path="url(#clip900)" d="M59.6106 1459.61 Q62.967 1460.33 64.842 1462.6 Q66.7402 1464.87 66.7402 1468.2 Q66.7402 1473.32 63.2217 1476.12 Q59.7032 1478.92 53.2217 1478.92 Q51.0458 1478.92 48.731 1478.48 Q46.4393 1478.06 43.9856 1477.2 L43.9856 1472.69 Q45.9301 1473.82 48.2449 1474.4 Q50.5597 1474.98 53.0828 1474.98 Q57.4809 1474.98 59.7726 1473.25 Q62.0874 1471.51 62.0874 1468.2 Q62.0874 1465.14 59.9346 1463.43 Q57.805 1461.69 53.9856 1461.69 L49.9578 1461.69 L49.9578 1457.85 L54.1708 1457.85 Q57.6198 1457.85 59.4485 1456.49 Q61.2772 1455.1 61.2772 1452.51 Q61.2772 1449.84 59.3791 1448.43 Q57.5041 1447 53.9856 1447 Q52.0643 1447 49.8652 1447.41 Q47.6662 1447.83 45.0273 1448.71 L45.0273 1444.54 Q47.6893 1443.8 50.0041 1443.43 Q52.3421 1443.06 54.4023 1443.06 Q59.7263 1443.06 62.8281 1445.49 Q65.93 1447.9 65.93 1452.02 Q65.93 1454.89 64.2865 1456.88 Q62.643 1458.85 59.6106 1459.61 Z" fill="#000000" fill-rule="nonzero" fill-opacity="1" /><path clip-path="url(#clip900)" d="M6.62474 1231.35 L36.3005 1231.35 L36.3005 1235.28 L6.62474 1235.28 L6.62474 1231.35 Z" fill="#000000" fill-rule="nonzero" fill-opacity="1" /><path clip-path="url(#clip900)" d="M50.4208 1244.24 L66.7402 1244.24 L66.7402 1248.18 L44.7958 1248.18 L44.7958 1244.24 Q47.4579 1241.49 52.0412 1236.86 Q56.6476 1232.2 57.8282 1230.86 Q60.0735 1228.34 60.9532 1226.6 Q61.8559 1224.84 61.8559 1223.15 Q61.8559 1220.4 59.9115 1218.66 Q57.9902 1216.93 54.8884 1216.93 Q52.6893 1216.93 50.2356 1217.69 Q47.8051 1218.45 45.0273 1220.01 L45.0273 1215.28 Q47.8514 1214.15 50.3051 1213.57 Q52.7588 1212.99 54.7958 1212.99 Q60.1661 1212.99 63.3605 1215.68 Q66.555 1218.36 66.555 1222.85 Q66.555 1224.98 65.7448 1226.9 Q64.9578 1228.8 62.8513 1231.39 Q62.2726 1232.07 59.1708 1235.28 Q56.0689 1238.48 50.4208 1244.24 Z" fill="#000000" fill-rule="nonzero" fill-opacity="1" /><path clip-path="url(#clip900)" d="M6.25437 1001.28 L35.9301 1001.28 L35.9301 1005.21 L6.25437 1005.21 L6.25437 1001.28 Z" fill="#000000" fill-rule="nonzero" fill-opacity="1" /><path clip-path="url(#clip900)" d="M46.8329 1014.17 L54.4717 1014.17 L54.4717 987.806 L46.1616 989.473 L46.1616 985.213 L54.4254 983.547 L59.1013 983.547 L59.1013 1014.17 L66.7402 1014.17 L66.7402 1018.11 L46.8329 1018.11 L46.8329 1014.17 Z" fill="#000000" fill-rule="nonzero" fill-opacity="1" /><path clip-path="url(#clip900)" d="M54.7958 756.556 Q51.1847 756.556 49.356 760.121 Q47.5504 763.662 47.5504 770.792 Q47.5504 777.898 49.356 781.463 Q51.1847 785.005 54.7958 785.005 Q58.43 785.005 60.2356 781.463 Q62.0643 777.898 62.0643 770.792 Q62.0643 763.662 60.2356 760.121 Q58.43 756.556 54.7958 756.556 M54.7958 752.852 Q60.6059 752.852 63.6615 757.459 Q66.7402 762.042 66.7402 770.792 Q66.7402 779.519 63.6615 784.125 Q60.6059 788.708 54.7958 788.708 Q48.9856 788.708 45.9069 784.125 Q42.8514 779.519 42.8514 770.792 Q42.8514 762.042 45.9069 757.459 Q48.9856 752.852 54.7958 752.852 Z" fill="#000000" fill-rule="nonzero" fill-opacity="1" /><path clip-path="url(#clip900)" d="M46.8329 554.032 L54.4717 554.032 L54.4717 527.667 L46.1616 529.334 L46.1616 525.074 L54.4254 523.408 L59.1013 523.408 L59.1013 554.032 L66.7402 554.032 L66.7402 557.968 L46.8329 557.968 L46.8329 554.032 Z" fill="#000000" fill-rule="nonzero" fill-opacity="1" /><path clip-path="url(#clip900)" d="M50.4208 323.963 L66.7402 323.963 L66.7402 327.898 L44.7958 327.898 L44.7958 323.963 Q47.4579 321.208 52.0412 316.579 Q56.6476 311.926 57.8282 310.583 Q60.0735 308.06 60.9532 306.324 Q61.8559 304.565 61.8559 302.875 Q61.8559 300.12 59.9115 298.384 Q57.9902 296.648 54.8884 296.648 Q52.6893 296.648 50.2356 297.412 Q47.8051 298.176 45.0273 299.727 L45.0273 295.005 Q47.8514 293.87 50.3051 293.292 Q52.7588 292.713 54.7958 292.713 Q60.1661 292.713 63.3605 295.398 Q66.555 298.083 66.555 302.574 Q66.555 304.704 65.7448 306.625 Q64.9578 308.523 62.8513 311.116 Q62.2726 311.787 59.1708 315.005 Q56.0689 318.199 50.4208 323.963 Z" fill="#000000" fill-rule="nonzero" fill-opacity="1" /><path clip-path="url(#clip900)" d="M59.6106 79.1944 Q62.967 79.912 64.842 82.1805 Q66.7402 84.449 66.7402 87.7823 Q66.7402 92.898 63.2217 95.6989 Q59.7032 98.4998 53.2217 98.4998 Q51.0458 98.4998 48.731 98.06 Q46.4393 97.6434 43.9856 96.7869 L43.9856 92.273 Q45.9301 93.4073 48.2449 93.986 Q50.5597 94.5647 53.0828 94.5647 Q57.4809 94.5647 59.7726 92.8286 Q62.0874 91.0925 62.0874 87.7823 Q62.0874 84.7268 59.9346 83.0138 Q57.805 81.2777 53.9856 81.2777 L49.9578 81.2777 L49.9578 77.4351 L54.1708 77.4351 Q57.6198 77.4351 59.4485 76.0694 Q61.2772 74.6805 61.2772 72.0879 Q61.2772 69.4259 59.3791 68.0139 Q57.5041 66.5787 53.9856 66.5787 Q52.0643 66.5787 49.8652 66.9954 Q47.6662 67.412 45.0273 68.2917 L45.0273 64.125 Q47.6893 63.3843 50.0041 63.0139 Q52.3421 62.6435 54.4023 62.6435 Q59.7263 62.6435 62.8281 65.0741 Q65.93 67.4815 65.93 71.6018 Q65.93 74.4722 64.2865 76.4629 Q62.643 78.4305 59.6106 79.1944 Z" fill="#000000" fill-rule="nonzero" fill-opacity="1" /><path clip-path="url(#clip900)" d="M-92.1003 1110.7 L-92.1003 1102.05 L-52.3465 1080.97 L-92.1003 1080.97 L-92.1003 1074.74 L-44.5803 1074.74 L-44.5803 1083.39 L-84.3342 1104.46 L-44.5803 1104.46 L-44.5803 1110.7 L-92.1003 1110.7 Z" fill="#000000" fill-rule="nonzero" fill-opacity="1" /><path clip-path="url(#clip900)" d="M-76.1224 1048.38 Q-76.1224 1053.09 -72.4303 1055.83 Q-68.77 1058.57 -62.3725 1058.57 Q-55.9749 1058.57 -52.2828 1055.86 Q-48.6226 1053.12 -48.6226 1048.38 Q-48.6226 1043.7 -52.3147 1040.97 Q-56.0068 1038.23 -62.3725 1038.23 Q-68.7064 1038.23 -72.3985 1040.97 Q-76.1224 1043.7 -76.1224 1048.38 M-81.0877 1048.38 Q-81.0877 1040.74 -76.1224 1036.38 Q-71.1572 1032.02 -62.3725 1032.02 Q-53.6196 1032.02 -48.6226 1036.38 Q-43.6573 1040.74 -43.6573 1048.38 Q-43.6573 1056.05 -48.6226 1060.41 Q-53.6196 1064.74 -62.3725 1064.74 Q-71.1572 1064.74 -76.1224 1060.41 Q-81.0877 1056.05 -81.0877 1048.38 Z" fill="#000000" fill-rule="nonzero" fill-opacity="1" /><path clip-path="url(#clip900)" d="M-74.7538 1001.66 Q-75.3267 1002.64 -75.5813 1003.82 Q-75.8678 1004.97 -75.8678 1006.37 Q-75.8678 1011.33 -72.6213 1014.01 Q-69.4066 1016.65 -63.3592 1016.65 L-44.5803 1016.65 L-44.5803 1022.54 L-80.2283 1022.54 L-80.2283 1016.65 L-74.6901 1016.65 Q-77.9366 1014.8 -79.4962 1011.84 Q-81.0877 1008.88 -81.0877 1004.65 Q-81.0877 1004.05 -80.9922 1003.31 Q-80.9285 1002.58 -80.7694 1001.69 L-74.7538 1001.66 Z" fill="#000000" fill-rule="nonzero" fill-opacity="1" /><path clip-path="url(#clip900)" d="M-73.3852 968.907 Q-77.3319 966.71 -79.2098 963.655 Q-81.0877 960.599 -81.0877 956.462 Q-81.0877 950.892 -77.1727 947.868 Q-73.2897 944.844 -66.0964 944.844 L-44.5803 944.844 L-44.5803 950.732 L-65.9054 950.732 Q-71.0298 950.732 -73.5125 952.547 Q-75.9951 954.361 -75.9951 958.085 Q-75.9951 962.636 -72.9714 965.278 Q-69.9477 967.92 -64.7278 967.92 L-44.5803 967.92 L-44.5803 973.808 L-65.9054 973.808 Q-71.0617 973.808 -73.5125 975.622 Q-75.9951 977.437 -75.9951 981.224 Q-75.9951 985.712 -72.9396 988.354 Q-69.9158 990.996 -64.7278 990.996 L-44.5803 990.996 L-44.5803 996.884 L-80.2283 996.884 L-80.2283 990.996 L-74.6901 990.996 Q-77.9685 988.99 -79.5281 986.189 Q-81.0877 983.389 -81.0877 979.537 Q-81.0877 975.654 -79.1143 972.949 Q-77.1409 970.212 -73.3852 968.907 Z" fill="#000000" fill-rule="nonzero" fill-opacity="1" /><path clip-path="url(#clip900)" d="M-62.4998 916.962 Q-62.4998 924.06 -60.8765 926.797 Q-59.2533 929.535 -55.3384 929.535 Q-52.2192 929.535 -50.3731 927.498 Q-48.5589 925.429 -48.5589 921.896 Q-48.5589 917.026 -51.9964 914.098 Q-55.4657 911.138 -61.1948 911.138 L-62.4998 911.138 L-62.4998 916.962 M-64.9188 905.281 L-44.5803 905.281 L-44.5803 911.138 L-49.9912 911.138 Q-46.7447 913.143 -45.1851 916.135 Q-43.6573 919.127 -43.6573 923.455 Q-43.6573 928.93 -46.7128 932.176 Q-49.8002 935.391 -54.9564 935.391 Q-60.972 935.391 -64.0276 931.381 Q-67.0831 927.338 -67.0831 919.35 L-67.0831 911.138 L-67.656 911.138 Q-71.6982 911.138 -73.8944 913.811 Q-76.1224 916.453 -76.1224 921.259 Q-76.1224 924.315 -75.3904 927.211 Q-74.6583 930.108 -73.1942 932.781 L-78.605 932.781 Q-79.8463 929.566 -80.4511 926.543 Q-81.0877 923.519 -81.0877 920.654 Q-81.0877 912.92 -77.0773 909.101 Q-73.0669 905.281 -64.9188 905.281 Z" fill="#000000" fill-rule="nonzero" fill-opacity="1" /><path clip-path="url(#clip900)" d="M-94.1055 893.218 L-94.1055 887.362 L-44.5803 887.362 L-44.5803 893.218 L-94.1055 893.218 Z" fill="#000000" fill-rule="nonzero" fill-opacity="1" /><path clip-path="url(#clip900)" d="M-80.2283 875.108 L-80.2283 869.251 L-44.5803 869.251 L-44.5803 875.108 L-80.2283 875.108 M-94.1055 875.108 L-94.1055 869.251 L-86.6895 869.251 L-86.6895 875.108 L-94.1055 875.108 Z" fill="#000000" fill-rule="nonzero" fill-opacity="1" /><path clip-path="url(#clip900)" d="M-80.2283 859.544 L-80.2283 831.726 L-74.8811 831.726 L-49.2591 853.751 L-49.2591 831.726 L-44.5803 831.726 L-44.5803 860.339 L-49.9275 860.339 L-75.5495 838.314 L-75.5495 859.544 L-80.2283 859.544 Z" fill="#000000" fill-rule="nonzero" fill-opacity="1" /><path clip-path="url(#clip900)" d="M-63.8684 792.29 L-61.0039 792.29 L-61.0039 819.217 Q-54.9564 818.835 -51.7736 815.588 Q-48.6226 812.31 -48.6226 806.486 Q-48.6226 803.112 -49.4501 799.961 Q-50.2776 796.778 -51.9327 793.659 L-46.3946 793.659 Q-45.0578 796.81 -44.3575 800.12 Q-43.6573 803.43 -43.6573 806.836 Q-43.6573 815.366 -48.6226 820.363 Q-53.5878 825.328 -62.0542 825.328 Q-70.807 825.328 -75.9314 820.617 Q-81.0877 815.875 -81.0877 807.854 Q-81.0877 800.661 -76.4407 796.491 Q-71.8256 792.29 -63.8684 792.29 M-65.5872 798.146 Q-70.3933 798.21 -73.2578 800.852 Q-76.1224 803.462 -76.1224 807.79 Q-76.1224 812.692 -73.3533 815.652 Q-70.5842 818.58 -65.5553 819.026 L-65.5872 798.146 Z" fill="#000000" fill-rule="nonzero" fill-opacity="1" /><path clip-path="url(#clip900)" d="M-74.8174 759.22 L-94.1055 759.22 L-94.1055 753.364 L-44.5803 753.364 L-44.5803 759.22 L-49.9275 759.22 Q-46.7447 761.066 -45.1851 763.899 Q-43.6573 766.7 -43.6573 770.647 Q-43.6573 777.108 -48.8135 781.182 Q-53.9697 785.224 -62.3725 785.224 Q-70.7752 785.224 -75.9314 781.182 Q-81.0877 777.108 -81.0877 770.647 Q-81.0877 766.7 -79.5281 763.899 Q-78.0003 761.066 -74.8174 759.22 M-62.3725 779.177 Q-55.9113 779.177 -52.2192 776.535 Q-48.5589 773.861 -48.5589 769.214 Q-48.5589 764.567 -52.2192 761.894 Q-55.9113 759.22 -62.3725 759.22 Q-68.8337 759.22 -72.494 761.894 Q-76.1861 764.567 -76.1861 769.214 Q-76.1861 773.861 -72.494 776.535 Q-68.8337 779.177 -62.3725 779.177 Z" fill="#000000" fill-rule="nonzero" fill-opacity="1" /><path clip-path="url(#clip900)" d="M-66.8603 697.791 Q-66.1601 695.722 -63.8684 693.781 Q-61.5768 691.807 -57.5664 689.834 L-44.5803 683.309 L-44.5803 690.216 L-56.7707 696.295 Q-61.5449 698.65 -63.1045 700.878 Q-64.6641 703.075 -64.6641 706.894 L-64.6641 713.896 L-44.5803 713.896 L-44.5803 720.326 L-92.1003 720.326 L-92.1003 705.812 Q-92.1003 697.664 -88.6947 693.653 Q-85.289 689.643 -78.4141 689.643 Q-73.9262 689.643 -70.9662 691.744 Q-68.0061 693.813 -66.8603 697.791 M-86.8168 713.896 L-69.9477 713.896 L-69.9477 705.812 Q-69.9477 701.165 -72.0802 698.81 Q-74.2445 696.422 -78.4141 696.422 Q-82.5836 696.422 -84.6843 698.81 Q-86.8168 701.165 -86.8168 705.812 L-86.8168 713.896 Z" fill="#000000" fill-rule="nonzero" fill-opacity="1" /><path clip-path="url(#clip900)" d="M-63.8684 647.725 L-61.0039 647.725 L-61.0039 674.652 Q-54.9564 674.27 -51.7736 671.023 Q-48.6226 667.745 -48.6226 661.92 Q-48.6226 658.547 -49.4501 655.395 Q-50.2776 652.213 -51.9327 649.093 L-46.3946 649.093 Q-45.0578 652.244 -44.3575 655.555 Q-43.6573 658.865 -43.6573 662.27 Q-43.6573 670.8 -48.6226 675.798 Q-53.5878 680.763 -62.0542 680.763 Q-70.807 680.763 -75.9314 676.052 Q-81.0877 671.31 -81.0877 663.289 Q-81.0877 656.096 -76.4407 651.926 Q-71.8256 647.725 -63.8684 647.725 M-65.5872 653.581 Q-70.3933 653.645 -73.2578 656.287 Q-76.1224 658.897 -76.1224 663.225 Q-76.1224 668.127 -73.3533 671.087 Q-70.5842 674.015 -65.5553 674.461 L-65.5872 653.581 Z" fill="#000000" fill-rule="nonzero" fill-opacity="1" /><path clip-path="url(#clip900)" d="M-79.1779 615.387 L-73.6398 615.387 Q-74.9129 617.87 -75.5495 620.543 Q-76.1861 623.217 -76.1861 626.081 Q-76.1861 630.442 -74.8493 632.638 Q-73.5125 634.802 -70.8389 634.802 Q-68.8018 634.802 -67.6242 633.243 Q-66.4784 631.683 -65.428 626.973 L-64.9824 624.967 Q-63.6456 618.729 -61.1948 616.119 Q-58.7759 613.477 -54.4153 613.477 Q-49.4501 613.477 -46.5537 617.424 Q-43.6573 621.339 -43.6573 628.214 Q-43.6573 631.078 -44.2302 634.198 Q-44.7713 637.285 -45.8853 640.723 L-51.9327 640.723 Q-50.2458 637.476 -49.3864 634.325 Q-48.5589 631.174 -48.5589 628.087 Q-48.5589 623.949 -49.9594 621.721 Q-51.3916 619.493 -53.9697 619.493 Q-56.3569 619.493 -57.63 621.116 Q-58.9032 622.708 -60.0808 628.15 L-60.5583 630.187 Q-61.7041 635.63 -64.0594 638.049 Q-66.4465 640.468 -70.5842 640.468 Q-75.6131 640.468 -78.3504 636.903 Q-81.0877 633.338 -81.0877 626.782 Q-81.0877 623.535 -80.6102 620.671 Q-80.1328 617.806 -79.1779 615.387 Z" fill="#000000" fill-rule="nonzero" fill-opacity="1" /><path clip-path="url(#clip900)" d="M-80.2283 604.152 L-80.2283 598.295 L-44.5803 598.295 L-44.5803 604.152 L-80.2283 604.152 M-94.1055 604.152 L-94.1055 598.295 L-86.6895 598.295 L-86.6895 604.152 L-94.1055 604.152 Z" fill="#000000" fill-rule="nonzero" fill-opacity="1" /><path clip-path="url(#clip900)" d="M-74.8174 562.583 L-94.1055 562.583 L-94.1055 556.727 L-44.5803 556.727 L-44.5803 562.583 L-49.9275 562.583 Q-46.7447 564.43 -45.1851 567.262 Q-43.6573 570.063 -43.6573 574.01 Q-43.6573 580.471 -48.8135 584.545 Q-53.9697 588.587 -62.3725 588.587 Q-70.7752 588.587 -75.9314 584.545 Q-81.0877 580.471 -81.0877 574.01 Q-81.0877 570.063 -79.5281 567.262 Q-78.0003 564.43 -74.8174 562.583 M-62.3725 582.54 Q-55.9113 582.54 -52.2192 579.898 Q-48.5589 577.225 -48.5589 572.578 Q-48.5589 567.931 -52.2192 565.257 Q-55.9113 562.583 -62.3725 562.583 Q-68.8337 562.583 -72.494 565.257 Q-76.1861 567.931 -76.1861 572.578 Q-76.1861 577.225 -72.494 579.898 Q-68.8337 582.54 -62.3725 582.54 Z" fill="#000000" fill-rule="nonzero" fill-opacity="1" /><path clip-path="url(#clip900)" d="M-58.6485 545.269 L-80.2283 545.269 L-80.2283 539.412 L-58.8713 539.412 Q-53.8106 539.412 -51.2643 537.439 Q-48.7499 535.466 -48.7499 531.519 Q-48.7499 526.776 -51.7736 524.039 Q-54.7973 521.27 -60.0172 521.27 L-80.2283 521.27 L-80.2283 515.414 L-44.5803 515.414 L-44.5803 521.27 L-50.0548 521.27 Q-46.8083 523.403 -45.2169 526.235 Q-43.6573 529.036 -43.6573 532.76 Q-43.6573 538.903 -47.4767 542.086 Q-51.2962 545.269 -58.6485 545.269 M-81.0877 530.532 L-81.0877 530.532 Z" fill="#000000" fill-rule="nonzero" fill-opacity="1" /><path clip-path="url(#clip900)" d="M-62.4998 487.15 Q-62.4998 494.248 -60.8765 496.985 Q-59.2533 499.722 -55.3384 499.722 Q-52.2192 499.722 -50.3731 497.685 Q-48.5589 495.616 -48.5589 492.083 Q-48.5589 487.214 -51.9964 484.285 Q-55.4657 481.325 -61.1948 481.325 L-62.4998 481.325 L-62.4998 487.15 M-64.9188 475.469 L-44.5803 475.469 L-44.5803 481.325 L-49.9912 481.325 Q-46.7447 483.33 -45.1851 486.322 Q-43.6573 489.314 -43.6573 493.643 Q-43.6573 499.117 -46.7128 502.364 Q-49.8002 505.579 -54.9564 505.579 Q-60.972 505.579 -64.0276 501.568 Q-67.0831 497.526 -67.0831 489.537 L-67.0831 481.325 L-67.656 481.325 Q-71.6982 481.325 -73.8944 483.999 Q-76.1224 486.641 -76.1224 491.447 Q-76.1224 494.502 -75.3904 497.399 Q-74.6583 500.295 -73.1942 502.969 L-78.605 502.969 Q-79.8463 499.754 -80.4511 496.73 Q-81.0877 493.707 -81.0877 490.842 Q-81.0877 483.108 -77.0773 479.288 Q-73.0669 475.469 -64.9188 475.469 Z" fill="#000000" fill-rule="nonzero" fill-opacity="1" /><path clip-path="url(#clip900)" d="M-94.1055 463.406 L-94.1055 457.549 L-44.5803 457.549 L-44.5803 463.406 L-94.1055 463.406 Z" fill="#000000" fill-rule="nonzero" fill-opacity="1" /><path clip-path="url(#clip900)" d="M1023.24 31.7429 L981.433 46.6097 L1023.24 61.3955 L1023.24 68.7682 L971.306 49.9314 L971.306 43.2069 L1023.24 24.3702 L1023.24 31.7429 Z" fill="#000000" fill-rule="nonzero" fill-opacity="1" /><path clip-path="url(#clip900)" d="M1061.68 82.7033 L1055.65 67.1883 L1043.21 89.8734 L1034.42 89.8734 L1052 57.7902 L1044.63 38.7104 Q1042.64 33.6063 1036.4 33.6063 L1034.42 33.6063 L1034.42 27.2059 L1037.25 27.2869 Q1047.71 27.5705 1050.34 34.3355 L1056.33 49.8504 L1068.77 27.1654 L1077.56 27.1654 L1059.98 59.2485 L1067.35 78.3283 Q1069.34 83.4324 1075.58 83.4324 L1077.56 83.4324 L1077.56 89.8329 L1074.73 89.7518 Q1064.27 89.4683 1061.68 82.7033 Z" fill="#000000" fill-rule="nonzero" fill-opacity="1" /><path clip-path="url(#clip900)" d="M1090.81 40.8979 L1107.98 40.8979 L1107.98 45.516 L1083.76 45.516 L1083.76 41.06 Q1085.14 39.8042 1087.69 37.5357 Q1101.62 25.1804 1101.62 21.3726 Q1101.62 18.699 1099.52 17.0786 Q1097.41 15.4177 1093.97 15.4177 Q1091.86 15.4177 1089.39 16.1469 Q1086.92 16.8356 1084 18.2534 L1084 13.2708 Q1087.12 12.1365 1089.79 11.5694 Q1092.51 11.0023 1094.82 11.0023 Q1100.69 11.0023 1104.22 13.6759 Q1107.74 16.3494 1107.74 20.7244 Q1107.74 26.3552 1094.33 37.8598 Q1092.06 39.8042 1090.81 40.8979 Z" fill="#000000" fill-rule="nonzero" fill-opacity="1" /><path clip-path="url(#clip900)" d="M1122 31.7429 L1122 24.3702 L1173.93 43.2069 L1173.93 49.9314 L1122 68.7682 L1122 61.3955 L1163.72 46.6097 L1122 31.7429 Z" fill="#000000" fill-rule="nonzero" fill-opacity="1" /><path clip-path="url(#clip900)" d="M1217.88 34.9026 L1269.82 34.9026 L1269.82 41.7081 L1217.88 41.7081 L1217.88 34.9026 M1217.88 51.4303 L1269.82 51.4303 L1269.82 58.3168 L1217.88 58.3168 L1217.88 51.4303 Z" fill="#000000" fill-rule="nonzero" fill-opacity="1" /><path clip-path="url(#clip900)" d="M1315.27 65.6895 L1328.64 65.6895 L1328.64 19.5497 L1314.09 22.4663 L1314.09 15.0127 L1328.55 12.096 L1336.74 12.096 L1336.74 65.6895 L1350.11 65.6895 L1350.11 72.576 L1315.27 72.576 L1315.27 65.6895 Z" fill="#000000" fill-rule="nonzero" fill-opacity="1" /><path clip-path="url(#clip900)" d="M1366.63 62.2867 L1375.18 62.2867 L1375.18 72.576 L1366.63 72.576 L1366.63 62.2867 Z" fill="#000000" fill-rule="nonzero" fill-opacity="1" /><path clip-path="url(#clip900)" d="M1417.8 39.9662 Q1423.67 41.222 1426.95 45.1919 Q1430.27 49.1618 1430.27 54.9951 Q1430.27 63.9476 1424.12 68.8492 Q1417.96 73.7508 1406.62 73.7508 Q1402.81 73.7508 1398.76 72.9811 Q1394.75 72.2519 1390.45 70.7531 L1390.45 62.8538 Q1393.86 64.8388 1397.91 65.8515 Q1401.96 66.8642 1406.37 66.8642 Q1414.07 66.8642 1418.08 63.826 Q1422.13 60.7879 1422.13 54.9951 Q1422.13 49.6479 1418.36 46.6502 Q1414.64 43.612 1407.95 43.612 L1400.9 43.612 L1400.9 36.8875 L1408.28 36.8875 Q1414.31 36.8875 1417.51 34.4975 Q1420.71 32.067 1420.71 27.5299 Q1420.71 22.8714 1417.39 20.4004 Q1414.11 17.8888 1407.95 17.8888 Q1404.59 17.8888 1400.74 18.618 Q1396.89 19.3471 1392.28 20.8865 L1392.28 13.5948 Q1396.93 12.2985 1400.98 11.6504 Q1405.08 11.0023 1408.68 11.0023 Q1418 11.0023 1423.43 15.2557 Q1428.86 19.4686 1428.86 26.6793 Q1428.86 31.7024 1425.98 35.1862 Q1423.1 38.6294 1417.8 39.9662 Z" fill="#000000" fill-rule="nonzero" fill-opacity="1" /><path clip-path="url(#clip900)" d="M1463.29 17.4837 Q1456.97 17.4837 1453.77 23.7221 Q1450.61 29.92 1450.61 42.3968 Q1450.61 54.833 1453.77 61.0714 Q1456.97 67.2693 1463.29 67.2693 Q1469.65 67.2693 1472.81 61.0714 Q1476.01 54.833 1476.01 42.3968 Q1476.01 29.92 1472.81 23.7221 Q1469.65 17.4837 1463.29 17.4837 M1463.29 11.0023 Q1473.46 11.0023 1478.8 19.0636 Q1484.19 27.0843 1484.19 42.3968 Q1484.19 57.6687 1478.8 65.73 Q1473.46 73.7508 1463.29 73.7508 Q1453.12 73.7508 1447.73 65.73 Q1442.39 57.6687 1442.39 42.3968 Q1442.39 27.0843 1447.73 19.0636 Q1453.12 11.0023 1463.29 11.0023 Z" fill="#000000" fill-rule="nonzero" fill-opacity="1" /><polyline clip-path="url(#clip902)" style="stroke:#000000; stroke-linecap:round; stroke-linejoin:round; stroke-width:4; stroke-opacity:0; fill:none" points="1756.36,512.114 1780.87,884.124 1800.42,251.574 1815.05,638.636 1829.95,612.683 1829.48,343.481 1824.17,686.759 1812.58,587.593 2020.29,875.648 1812.58,856.411 2020.29,793.375 1798.99,850.506 2012.64,1071.5 1797,694.609 2011.2,696.699 1776.44,1022.14 1996.76,927.216 1776.5,1170.65 1996.8,636.326 1978.71,845.977 1276.72,1127.41 1753.51,1160.01 1081.37,902.717 1751.01,742.304 1977.03,394.566 1222.72,752.734 2287.15,816.738 1719,591.235 2284.37,862.86 1326.34,1113.3 1950.19,1027.15 1138.58,1064.86 1138.56,1011.03 1716.74,1007.73 1948.73,433.063 1921.22,645.01 2289.08,851.031 1361.2,1072.68 1179,707.197 1686.05,1097.62 1922.05,781.55 2287.36,714.339 1921.22,1173.36 1178.98,143.724 1684.72,1308.3 1889.3,745.418 1391.98,447.871 1215.05,725.186 1391.96,649.493 1648.51,1091.98 1889.3,475.433 1215.03,248.587 1247,431.363 1418.8,716.558 1418.78,738.498 1246.98,749.164 1447.83,989.052 1281.47,751.556 362.1,739.954 1446.96,103.811 1466.4,475.545 1306.46,692.856 1304.85,596.231 1465.3,871.859 1465.28,1146.99 1304.84,880.185 1324.64,598.498 1480,770.46 1324.63,886.037 1479.98,1025.96 1340.9,1211.21 1491.1,956.872 1491.09,866.15 1499.98,1014.21 166.898,806.857 1356.73,570.832 1500.4,831.385 1499.96,949.033 1364.96,1062.64 1503.1,865.901 1364.97,566.809 537.873,434.461 1364.96,1010.27 1503.09,707.201 1502.7,1121.24 166.649,385.235 1502.69,1464.44 1502.69,1030.96 1370.18,800.769 1498.78,528.187 166.42,854.711 1498.77,933.004 1498.77,1108.14 1372.04,1070.19 "/>
<circle clip-path="url(#clip902)" cx="1756.36" cy="512.114" r="14.4" fill="#009af9" fill-rule="evenodd" fill-opacity="1" stroke="#000000" stroke-opacity="1" stroke-width="3.2"/>
<circle clip-path="url(#clip902)" cx="1780.87" cy="884.124" r="14.4" fill="#009af9" fill-rule="evenodd" fill-opacity="1" stroke="#000000" stroke-opacity="1" stroke-width="3.2"/>
<circle clip-path="url(#clip902)" cx="1800.42" cy="251.574" r="14.4" fill="#009af9" fill-rule="evenodd" fill-opacity="1" stroke="#000000" stroke-opacity="1" stroke-width="3.2"/>
<circle clip-path="url(#clip902)" cx="1815.05" cy="638.636" r="14.4" fill="#009af9" fill-rule="evenodd" fill-opacity="1" stroke="#000000" stroke-opacity="1" stroke-width="3.2"/>
<circle clip-path="url(#clip902)" cx="1829.95" cy="612.683" r="14.4" fill="#009af9" fill-rule="evenodd" fill-opacity="1" stroke="#000000" stroke-opacity="1" stroke-width="3.2"/>
<circle clip-path="url(#clip902)" cx="1829.48" cy="343.481" r="14.4" fill="#009af9" fill-rule="evenodd" fill-opacity="1" stroke="#000000" stroke-opacity="1" stroke-width="3.2"/>
<circle clip-path="url(#clip902)" cx="1824.17" cy="686.759" r="14.4" fill="#009af9" fill-rule="evenodd" fill-opacity="1" stroke="#000000" stroke-opacity="1" stroke-width="3.2"/>
<circle clip-path="url(#clip902)" cx="1812.58" cy="587.593" r="14.4" fill="#009af9" fill-rule="evenodd" fill-opacity="1" stroke="#000000" stroke-opacity="1" stroke-width="3.2"/>
<circle clip-path="url(#clip902)" cx="2020.29" cy="875.648" r="14.4" fill="#009af9" fill-rule="evenodd" fill-opacity="1" stroke="#000000" stroke-opacity="1" stroke-width="3.2"/>
<circle clip-path="url(#clip902)" cx="1812.58" cy="856.411" r="14.4" fill="#009af9" fill-rule="evenodd" fill-opacity="1" stroke="#000000" stroke-opacity="1" stroke-width="3.2"/>
<circle clip-path="url(#clip902)" cx="2020.29" cy="793.375" r="14.4" fill="#009af9" fill-rule="evenodd" fill-opacity="1" stroke="#000000" stroke-opacity="1" stroke-width="3.2"/>
<circle clip-path="url(#clip902)" cx="1798.99" cy="850.506" r="14.4" fill="#009af9" fill-rule="evenodd" fill-opacity="1" stroke="#000000" stroke-opacity="1" stroke-width="3.2"/>
<circle clip-path="url(#clip902)" cx="2012.64" cy="1071.5" r="14.4" fill="#009af9" fill-rule="evenodd" fill-opacity="1" stroke="#000000" stroke-opacity="1" stroke-width="3.2"/>
<circle clip-path="url(#clip902)" cx="1797" cy="694.609" r="14.4" fill="#009af9" fill-rule="evenodd" fill-opacity="1" stroke="#000000" stroke-opacity="1" stroke-width="3.2"/>
<circle clip-path="url(#clip902)" cx="2011.2" cy="696.699" r="14.4" fill="#009af9" fill-rule="evenodd" fill-opacity="1" stroke="#000000" stroke-opacity="1" stroke-width="3.2"/>
<circle clip-path="url(#clip902)" cx="1776.44" cy="1022.14" r="14.4" fill="#009af9" fill-rule="evenodd" fill-opacity="1" stroke="#000000" stroke-opacity="1" stroke-width="3.2"/>
<circle clip-path="url(#clip902)" cx="1996.76" cy="927.216" r="14.4" fill="#009af9" fill-rule="evenodd" fill-opacity="1" stroke="#000000" stroke-opacity="1" stroke-width="3.2"/>
<circle clip-path="url(#clip902)" cx="1776.5" cy="1170.65" r="14.4" fill="#009af9" fill-rule="evenodd" fill-opacity="1" stroke="#000000" stroke-opacity="1" stroke-width="3.2"/>
<circle clip-path="url(#clip902)" cx="1996.8" cy="636.326" r="14.4" fill="#009af9" fill-rule="evenodd" fill-opacity="1" stroke="#000000" stroke-opacity="1" stroke-width="3.2"/>
<circle clip-path="url(#clip902)" cx="1978.71" cy="845.977" r="14.4" fill="#009af9" fill-rule="evenodd" fill-opacity="1" stroke="#000000" stroke-opacity="1" stroke-width="3.2"/>
<circle clip-path="url(#clip902)" cx="1276.72" cy="1127.41" r="14.4" fill="#009af9" fill-rule="evenodd" fill-opacity="1" stroke="#000000" stroke-opacity="1" stroke-width="3.2"/>
<circle clip-path="url(#clip902)" cx="1753.51" cy="1160.01" r="14.4" fill="#009af9" fill-rule="evenodd" fill-opacity="1" stroke="#000000" stroke-opacity="1" stroke-width="3.2"/>
<circle clip-path="url(#clip902)" cx="1081.37" cy="902.717" r="14.4" fill="#009af9" fill-rule="evenodd" fill-opacity="1" stroke="#000000" stroke-opacity="1" stroke-width="3.2"/>
<circle clip-path="url(#clip902)" cx="1751.01" cy="742.304" r="14.4" fill="#009af9" fill-rule="evenodd" fill-opacity="1" stroke="#000000" stroke-opacity="1" stroke-width="3.2"/>
<circle clip-path="url(#clip902)" cx="1977.03" cy="394.566" r="14.4" fill="#009af9" fill-rule="evenodd" fill-opacity="1" stroke="#000000" stroke-opacity="1" stroke-width="3.2"/>
<circle clip-path="url(#clip902)" cx="1222.72" cy="752.734" r="14.4" fill="#009af9" fill-rule="evenodd" fill-opacity="1" stroke="#000000" stroke-opacity="1" stroke-width="3.2"/>
<circle clip-path="url(#clip902)" cx="2287.15" cy="816.738" r="14.4" fill="#009af9" fill-rule="evenodd" fill-opacity="1" stroke="#000000" stroke-opacity="1" stroke-width="3.2"/>
<circle clip-path="url(#clip902)" cx="1719" cy="591.235" r="14.4" fill="#009af9" fill-rule="evenodd" fill-opacity="1" stroke="#000000" stroke-opacity="1" stroke-width="3.2"/>
<circle clip-path="url(#clip902)" cx="2284.37" cy="862.86" r="14.4" fill="#009af9" fill-rule="evenodd" fill-opacity="1" stroke="#000000" stroke-opacity="1" stroke-width="3.2"/>
<circle clip-path="url(#clip902)" cx="1326.34" cy="1113.3" r="14.4" fill="#009af9" fill-rule="evenodd" fill-opacity="1" stroke="#000000" stroke-opacity="1" stroke-width="3.2"/>
<circle clip-path="url(#clip902)" cx="1950.19" cy="1027.15" r="14.4" fill="#009af9" fill-rule="evenodd" fill-opacity="1" stroke="#000000" stroke-opacity="1" stroke-width="3.2"/>
<circle clip-path="url(#clip902)" cx="1138.58" cy="1064.86" r="14.4" fill="#009af9" fill-rule="evenodd" fill-opacity="1" stroke="#000000" stroke-opacity="1" stroke-width="3.2"/>
<circle clip-path="url(#clip902)" cx="1138.56" cy="1011.03" r="14.4" fill="#009af9" fill-rule="evenodd" fill-opacity="1" stroke="#000000" stroke-opacity="1" stroke-width="3.2"/>
<circle clip-path="url(#clip902)" cx="1716.74" cy="1007.73" r="14.4" fill="#009af9" fill-rule="evenodd" fill-opacity="1" stroke="#000000" stroke-opacity="1" stroke-width="3.2"/>
<circle clip-path="url(#clip902)" cx="1948.73" cy="433.063" r="14.4" fill="#009af9" fill-rule="evenodd" fill-opacity="1" stroke="#000000" stroke-opacity="1" stroke-width="3.2"/>
<circle clip-path="url(#clip902)" cx="1921.22" cy="645.01" r="14.4" fill="#009af9" fill-rule="evenodd" fill-opacity="1" stroke="#000000" stroke-opacity="1" stroke-width="3.2"/>
<circle clip-path="url(#clip902)" cx="2289.08" cy="851.031" r="14.4" fill="#009af9" fill-rule="evenodd" fill-opacity="1" stroke="#000000" stroke-opacity="1" stroke-width="3.2"/>
<circle clip-path="url(#clip902)" cx="1361.2" cy="1072.68" r="14.4" fill="#009af9" fill-rule="evenodd" fill-opacity="1" stroke="#000000" stroke-opacity="1" stroke-width="3.2"/>
<circle clip-path="url(#clip902)" cx="1179" cy="707.197" r="14.4" fill="#009af9" fill-rule="evenodd" fill-opacity="1" stroke="#000000" stroke-opacity="1" stroke-width="3.2"/>
<circle clip-path="url(#clip902)" cx="1686.05" cy="1097.62" r="14.4" fill="#009af9" fill-rule="evenodd" fill-opacity="1" stroke="#000000" stroke-opacity="1" stroke-width="3.2"/>
<circle clip-path="url(#clip902)" cx="1922.05" cy="781.55" r="14.4" fill="#009af9" fill-rule="evenodd" fill-opacity="1" stroke="#000000" stroke-opacity="1" stroke-width="3.2"/>
<circle clip-path="url(#clip902)" cx="2287.36" cy="714.339" r="14.4" fill="#009af9" fill-rule="evenodd" fill-opacity="1" stroke="#000000" stroke-opacity="1" stroke-width="3.2"/>
<circle clip-path="url(#clip902)" cx="1921.22" cy="1173.36" r="14.4" fill="#009af9" fill-rule="evenodd" fill-opacity="1" stroke="#000000" stroke-opacity="1" stroke-width="3.2"/>
<circle clip-path="url(#clip902)" cx="1178.98" cy="143.724" r="14.4" fill="#009af9" fill-rule="evenodd" fill-opacity="1" stroke="#000000" stroke-opacity="1" stroke-width="3.2"/>
<circle clip-path="url(#clip902)" cx="1684.72" cy="1308.3" r="14.4" fill="#009af9" fill-rule="evenodd" fill-opacity="1" stroke="#000000" stroke-opacity="1" stroke-width="3.2"/>
<circle clip-path="url(#clip902)" cx="1889.3" cy="745.418" r="14.4" fill="#009af9" fill-rule="evenodd" fill-opacity="1" stroke="#000000" stroke-opacity="1" stroke-width="3.2"/>
<circle clip-path="url(#clip902)" cx="1391.98" cy="447.871" r="14.4" fill="#009af9" fill-rule="evenodd" fill-opacity="1" stroke="#000000" stroke-opacity="1" stroke-width="3.2"/>
<circle clip-path="url(#clip902)" cx="1215.05" cy="725.186" r="14.4" fill="#009af9" fill-rule="evenodd" fill-opacity="1" stroke="#000000" stroke-opacity="1" stroke-width="3.2"/>
<circle clip-path="url(#clip902)" cx="1391.96" cy="649.493" r="14.4" fill="#009af9" fill-rule="evenodd" fill-opacity="1" stroke="#000000" stroke-opacity="1" stroke-width="3.2"/>
<circle clip-path="url(#clip902)" cx="1648.51" cy="1091.98" r="14.4" fill="#009af9" fill-rule="evenodd" fill-opacity="1" stroke="#000000" stroke-opacity="1" stroke-width="3.2"/>
<circle clip-path="url(#clip902)" cx="1889.3" cy="475.433" r="14.4" fill="#009af9" fill-rule="evenodd" fill-opacity="1" stroke="#000000" stroke-opacity="1" stroke-width="3.2"/>
<circle clip-path="url(#clip902)" cx="1215.03" cy="248.587" r="14.4" fill="#009af9" fill-rule="evenodd" fill-opacity="1" stroke="#000000" stroke-opacity="1" stroke-width="3.2"/>
<circle clip-path="url(#clip902)" cx="1247" cy="431.363" r="14.4" fill="#009af9" fill-rule="evenodd" fill-opacity="1" stroke="#000000" stroke-opacity="1" stroke-width="3.2"/>
<circle clip-path="url(#clip902)" cx="1418.8" cy="716.558" r="14.4" fill="#009af9" fill-rule="evenodd" fill-opacity="1" stroke="#000000" stroke-opacity="1" stroke-width="3.2"/>
<circle clip-path="url(#clip902)" cx="1418.78" cy="738.498" r="14.4" fill="#009af9" fill-rule="evenodd" fill-opacity="1" stroke="#000000" stroke-opacity="1" stroke-width="3.2"/>
<circle clip-path="url(#clip902)" cx="1246.98" cy="749.164" r="14.4" fill="#009af9" fill-rule="evenodd" fill-opacity="1" stroke="#000000" stroke-opacity="1" stroke-width="3.2"/>
<circle clip-path="url(#clip902)" cx="1447.83" cy="989.052" r="14.4" fill="#009af9" fill-rule="evenodd" fill-opacity="1" stroke="#000000" stroke-opacity="1" stroke-width="3.2"/>
<circle clip-path="url(#clip902)" cx="1281.47" cy="751.556" r="14.4" fill="#009af9" fill-rule="evenodd" fill-opacity="1" stroke="#000000" stroke-opacity="1" stroke-width="3.2"/>
<circle clip-path="url(#clip902)" cx="362.1" cy="739.954" r="14.4" fill="#009af9" fill-rule="evenodd" fill-opacity="1" stroke="#000000" stroke-opacity="1" stroke-width="3.2"/>
<circle clip-path="url(#clip902)" cx="1446.96" cy="103.811" r="14.4" fill="#009af9" fill-rule="evenodd" fill-opacity="1" stroke="#000000" stroke-opacity="1" stroke-width="3.2"/>
<circle clip-path="url(#clip902)" cx="1466.4" cy="475.545" r="14.4" fill="#009af9" fill-rule="evenodd" fill-opacity="1" stroke="#000000" stroke-opacity="1" stroke-width="3.2"/>
<circle clip-path="url(#clip902)" cx="1306.46" cy="692.856" r="14.4" fill="#009af9" fill-rule="evenodd" fill-opacity="1" stroke="#000000" stroke-opacity="1" stroke-width="3.2"/>
<circle clip-path="url(#clip902)" cx="1304.85" cy="596.231" r="14.4" fill="#009af9" fill-rule="evenodd" fill-opacity="1" stroke="#000000" stroke-opacity="1" stroke-width="3.2"/>
<circle clip-path="url(#clip902)" cx="1465.3" cy="871.859" r="14.4" fill="#009af9" fill-rule="evenodd" fill-opacity="1" stroke="#000000" stroke-opacity="1" stroke-width="3.2"/>
<circle clip-path="url(#clip902)" cx="1465.28" cy="1146.99" r="14.4" fill="#009af9" fill-rule="evenodd" fill-opacity="1" stroke="#000000" stroke-opacity="1" stroke-width="3.2"/>
<circle clip-path="url(#clip902)" cx="1304.84" cy="880.185" r="14.4" fill="#009af9" fill-rule="evenodd" fill-opacity="1" stroke="#000000" stroke-opacity="1" stroke-width="3.2"/>
<circle clip-path="url(#clip902)" cx="1324.64" cy="598.498" r="14.4" fill="#009af9" fill-rule="evenodd" fill-opacity="1" stroke="#000000" stroke-opacity="1" stroke-width="3.2"/>
<circle clip-path="url(#clip902)" cx="1480" cy="770.46" r="14.4" fill="#009af9" fill-rule="evenodd" fill-opacity="1" stroke="#000000" stroke-opacity="1" stroke-width="3.2"/>
<circle clip-path="url(#clip902)" cx="1324.63" cy="886.037" r="14.4" fill="#009af9" fill-rule="evenodd" fill-opacity="1" stroke="#000000" stroke-opacity="1" stroke-width="3.2"/>
<circle clip-path="url(#clip902)" cx="1479.98" cy="1025.96" r="14.4" fill="#009af9" fill-rule="evenodd" fill-opacity="1" stroke="#000000" stroke-opacity="1" stroke-width="3.2"/>
<circle clip-path="url(#clip902)" cx="1340.9" cy="1211.21" r="14.4" fill="#009af9" fill-rule="evenodd" fill-opacity="1" stroke="#000000" stroke-opacity="1" stroke-width="3.2"/>
<circle clip-path="url(#clip902)" cx="1491.1" cy="956.872" r="14.4" fill="#009af9" fill-rule="evenodd" fill-opacity="1" stroke="#000000" stroke-opacity="1" stroke-width="3.2"/>
<circle clip-path="url(#clip902)" cx="1491.09" cy="866.15" r="14.4" fill="#009af9" fill-rule="evenodd" fill-opacity="1" stroke="#000000" stroke-opacity="1" stroke-width="3.2"/>
<circle clip-path="url(#clip902)" cx="1499.98" cy="1014.21" r="14.4" fill="#009af9" fill-rule="evenodd" fill-opacity="1" stroke="#000000" stroke-opacity="1" stroke-width="3.2"/>
<circle clip-path="url(#clip902)" cx="166.898" cy="806.857" r="14.4" fill="#009af9" fill-rule="evenodd" fill-opacity="1" stroke="#000000" stroke-opacity="1" stroke-width="3.2"/>
<circle clip-path="url(#clip902)" cx="1356.73" cy="570.832" r="14.4" fill="#009af9" fill-rule="evenodd" fill-opacity="1" stroke="#000000" stroke-opacity="1" stroke-width="3.2"/>
<circle clip-path="url(#clip902)" cx="1500.4" cy="831.385" r="14.4" fill="#009af9" fill-rule="evenodd" fill-opacity="1" stroke="#000000" stroke-opacity="1" stroke-width="3.2"/>
<circle clip-path="url(#clip902)" cx="1499.96" cy="949.033" r="14.4" fill="#009af9" fill-rule="evenodd" fill-opacity="1" stroke="#000000" stroke-opacity="1" stroke-width="3.2"/>
<circle clip-path="url(#clip902)" cx="1364.96" cy="1062.64" r="14.4" fill="#009af9" fill-rule="evenodd" fill-opacity="1" stroke="#000000" stroke-opacity="1" stroke-width="3.2"/>
<circle clip-path="url(#clip902)" cx="1503.1" cy="865.901" r="14.4" fill="#009af9" fill-rule="evenodd" fill-opacity="1" stroke="#000000" stroke-opacity="1" stroke-width="3.2"/>
<circle clip-path="url(#clip902)" cx="1364.97" cy="566.809" r="14.4" fill="#009af9" fill-rule="evenodd" fill-opacity="1" stroke="#000000" stroke-opacity="1" stroke-width="3.2"/>
<circle clip-path="url(#clip902)" cx="537.873" cy="434.461" r="14.4" fill="#009af9" fill-rule="evenodd" fill-opacity="1" stroke="#000000" stroke-opacity="1" stroke-width="3.2"/>
<circle clip-path="url(#clip902)" cx="1364.96" cy="1010.27" r="14.4" fill="#009af9" fill-rule="evenodd" fill-opacity="1" stroke="#000000" stroke-opacity="1" stroke-width="3.2"/>
<circle clip-path="url(#clip902)" cx="1503.09" cy="707.201" r="14.4" fill="#009af9" fill-rule="evenodd" fill-opacity="1" stroke="#000000" stroke-opacity="1" stroke-width="3.2"/>
<circle clip-path="url(#clip902)" cx="1502.7" cy="1121.24" r="14.4" fill="#009af9" fill-rule="evenodd" fill-opacity="1" stroke="#000000" stroke-opacity="1" stroke-width="3.2"/>
<circle clip-path="url(#clip902)" cx="166.649" cy="385.235" r="14.4" fill="#009af9" fill-rule="evenodd" fill-opacity="1" stroke="#000000" stroke-opacity="1" stroke-width="3.2"/>
<circle clip-path="url(#clip902)" cx="1502.69" cy="1464.44" r="14.4" fill="#009af9" fill-rule="evenodd" fill-opacity="1" stroke="#000000" stroke-opacity="1" stroke-width="3.2"/>
<circle clip-path="url(#clip902)" cx="1502.69" cy="1030.96" r="14.4" fill="#009af9" fill-rule="evenodd" fill-opacity="1" stroke="#000000" stroke-opacity="1" stroke-width="3.2"/>
<circle clip-path="url(#clip902)" cx="1370.18" cy="800.769" r="14.4" fill="#009af9" fill-rule="evenodd" fill-opacity="1" stroke="#000000" stroke-opacity="1" stroke-width="3.2"/>
<circle clip-path="url(#clip902)" cx="1498.78" cy="528.187" r="14.4" fill="#009af9" fill-rule="evenodd" fill-opacity="1" stroke="#000000" stroke-opacity="1" stroke-width="3.2"/>
<circle clip-path="url(#clip902)" cx="166.42" cy="854.711" r="14.4" fill="#009af9" fill-rule="evenodd" fill-opacity="1" stroke="#000000" stroke-opacity="1" stroke-width="3.2"/>
<circle clip-path="url(#clip902)" cx="1498.77" cy="933.004" r="14.4" fill="#009af9" fill-rule="evenodd" fill-opacity="1" stroke="#000000" stroke-opacity="1" stroke-width="3.2"/>
<circle clip-path="url(#clip902)" cx="1498.77" cy="1108.14" r="14.4" fill="#009af9" fill-rule="evenodd" fill-opacity="1" stroke="#000000" stroke-opacity="1" stroke-width="3.2"/>
<circle clip-path="url(#clip902)" cx="1372.04" cy="1070.19" r="14.4" fill="#009af9" fill-rule="evenodd" fill-opacity="1" stroke="#000000" stroke-opacity="1" stroke-width="3.2"/>
</svg>
